<svg xmlns="http://www.w3.org/2000/svg" width="254.567" height="269.851" viewBox="0 0 254.567 269.851">
  <g id="what-we-offer-2" transform="translate(0.005 0)">
    <path id="Path_66" data-name="Path 66" d="M318.476,427.847a49.982,49.982,0,0,1-12.391-1.6l-.8-.221-.74-.371c-26.752-13.413-49.321-31.13-67.081-52.658a199.344,199.344,0,0,1-33.87-60.143,231.483,231.483,0,0,1-13.09-81.545c.011-.582.021-1.032.021-1.342,0-13.488,7.487-25.322,19.073-30.15,8.868-3.695,89.383-36.766,95.2-39.155,10.956-5.49,22.644-.908,24.514-.106,4.2,1.715,78.627,32.159,94.712,39.818,16.577,7.894,21,22.074,21,29.209,0,32.3-5.594,62.488-16.627,89.723a207.755,207.755,0,0,1-37.335,60.17c-30.478,34.3-60.964,46.458-61.258,46.565a33.311,33.311,0,0,1-11.33,1.809Zm-7.169-17.759c2.643.593,8.728,1.481,12.694.035,5.039-1.838,30.555-15.069,54.4-41.9,32.945-37.074,49.661-83.679,49.685-138.521-.059-1.111-.848-9.036-11.342-14.033-15.773-7.511-93.138-39.145-93.918-39.464l-.214-.091c-1.621-.679-6.781-2.11-10.338-.247l-.712.332c-.862.354-86.33,35.458-95.446,39.256-6.376,2.657-8.648,9.239-8.648,14.512,0,.385-.01.946-.024,1.671C206.716,269.16,215.4,361.5,311.307,410.088Z" transform="translate(-190.465 -158)" fill="#3f3d56"/>
    <path id="Path_67" data-name="Path 67" d="M312.611,172.637s-86.245,35.422-95.486,39.273S203.264,225,203.264,234.241s-6.93,129.817,109.346,188.115c0,0,10.553,2.92,18.56,0s109.652-52.2,109.652-188.5c0,0,0-13.861-16.171-21.561S330.3,172.637,330.3,172.637,320.7,168.4,312.611,172.637Z" transform="translate(-194.731 -162.276)" fill="#3499eb"/>
    <path id="Path_68" data-name="Path 68" d="M338.2,215.286V404.25s-87.015-41.886-86.245-152Z" transform="translate(-211.077 -177.204)" opacity="0.1"/>
    <path id="Path_69" data-name="Path 69" d="M178.954,222.195l-27.719-35.64,16.12-12.537,13.125,16.875,44.337-46.8,14.827,14.047Z" transform="translate(-50.699 -48.301)" fill="#fff"/>
  </g>
</svg>
